<?xml version="1.0" encoding="UTF-8"?>
<svg xmlns="http://www.w3.org/2000/svg" xmlns:xlink="http://www.w3.org/1999/xlink" version="1.1" viewBox="0 0 30 30">
  <defs>
    <style>
      .cls-1 {
        fill: none;
        stroke: url(#linear-gradient);
        stroke-linecap: round;
        stroke-linejoin: round;
        stroke-width: 2px;
      }
    </style>
    <linearGradient id="linear-gradient" x1="15" y1="28.2" x2="15" y2="5.8" gradientTransform="translate(0 32) scale(1 -1)" gradientUnits="userSpaceOnUse">
      <stop offset="0" stop-color="#fff"/>
      <stop offset="1" stop-color="#dce4dd"/>
    </linearGradient>
  </defs>
  <!-- Generator: Adobe Illustrator 28.7.1, SVG Export Plug-In . SVG Version: 1.2.0 Build 142)  -->
  <g>
    <g id="Layer_1">
      <rect width="30" height="30"/>
      <path class="cls-1" d="M7.3,12.2c.7.3,1.4.3,2.1.2.7-.1,1.4-.5,1.9-1,.5-.5.9-1.2,1-1.9.1-.7,0-1.5-.2-2.1.8-.2,1.5-.7,2-1.3.5-.7.8-1.4.8-2.3,2.2,0,4.4.7,6.3,1.9,1.9,1.2,3.3,3,4.1,5,.9,2.1,1.1,4.3.6,6.5-.4,2.2-1.5,4.2-3.1,5.8-1.6,1.6-3.6,2.6-5.8,3.1-2.2.4-4.4.2-6.5-.6-2.1-.9-3.8-2.3-5-4.1-1.2-1.9-1.9-4-1.9-6.3.8,0,1.6-.3,2.3-.8.7-.5,1.1-1.2,1.3-2Z"/>
    </g>
  </g>
</svg>